<?xml version="1.0" encoding="UTF-8"?>
<svg width="14px" height="13px" viewBox="0 0 14 13" version="1.1" xmlns="http://www.w3.org/2000/svg" xmlns:xlink="http://www.w3.org/1999/xlink">
    <title>arrow copy 3</title>
    <g id="wgroup_desktop" stroke="none" stroke-width="1" fill="none" fill-rule="evenodd">
        <g id="wgroup-HP" transform="translate(-308.000000, -3466.000000)" fill="#A0A0A0">
            <g id="stop-start" transform="translate(0.000000, 3200.000000)">
                <g id="stop" transform="translate(308.000000, 195.000000)">
                    <path d="M8.09762624,71 L8.09762624,71 C8.55331698,71 8.86058345,71.3556666 8.86058345,71.3556666 L13.8640188,77.1440339 C13.8640188,77.1440339 13.8721774,77.1539505 13.8842271,77.1705226 C13.9737837,77.2853289 14.0025272,77.3988706 13.9998285,77.4999667 C14.0025272,77.6007301 13.9737837,77.7147377 13.8842271,77.829544 C13.8721774,77.8456502 13.8640188,77.8555668 13.8640188,77.8555668 L8.86058345,83.6440672 C8.86058345,83.6440672 8.55331698,83.9996007 8.09762624,83.9996007 L0.443139,84 C0.198442929,84 0,83.7892223 0,83.5297268 C0,83.4035397 0.0471317645,83.2897317 0.123446313,83.2050745 L0.11742148,83.2039431 L4.77003581,77.8591607 C4.77003581,77.8591607 4.77788064,77.84971 4.78955376,77.8332045 C4.87948694,77.7181985 4.90823041,77.6047899 4.90528075,77.5036938 C4.90823041,77.4026642 4.87948694,77.2889893 4.78974203,77.1741165 C4.77788064,77.1577441 4.77003581,77.1480937 4.77003581,77.1480937 L4.77329926,77.1450988 C4.77204409,77.142969 4.77003581,77.1405065 4.77003581,77.1405065 L0.11742148,71.7960569 L0.123446313,71.7945262 C0.0471317645,71.7100687 0,71.5963272 0,71.4701401 C0,71.2104449 0.198442929,71 0.443139,71 L8.09762624,71 Z" id="arrow-copy-3"></path>
                </g>
            </g>
        </g>
    </g>
</svg>