<?xml version="1.0" encoding="UTF-8"?>
<svg width="15px" height="13px" viewBox="0 0 15 13" version="1.1" xmlns="http://www.w3.org/2000/svg" xmlns:xlink="http://www.w3.org/1999/xlink">
    <title>arrow</title>
    <g id="Symbols" stroke="none" stroke-width="1" fill="none" fill-rule="evenodd">
        <g id="Menu" transform="translate(-1576.000000, -43.000000)" fill="#FFFFFF">
            <g id="button">
                <g>
                    <g transform="translate(1445.000000, 29.000000)">
                        <path d="M139.328987,14 L139.328987,14 C139.797697,14 140.113743,14.3501948 140.113743,14.3501948 L145.260134,20.0495103 C145.260134,20.0495103 145.268525,20.0592744 145.280919,20.0755914 C145.373035,20.1886315 145.402599,20.3004265 145.399824,20.3999672 C145.402599,20.4991804 145.373035,20.611434 145.280919,20.7244741 C145.268525,20.7403325 145.260134,20.7500965 145.260134,20.7500965 L140.113743,26.4495431 C140.113743,26.4495431 139.797697,26.7996068 139.328987,26.7996068 L131.4558,26.8 C131.204113,26.8 131,26.592465 131,26.3369617 C131,26.212716 131.048478,26.1006589 131.126973,26.0173041 L131.120776,26.0161901 L135.906323,20.7536351 C135.906323,20.7536351 135.914392,20.7443298 135.926398,20.7280783 C136.018901,20.6148416 136.048466,20.5031777 136.045432,20.4036369 C136.048466,20.3041617 136.018901,20.1922357 135.926592,20.0791301 C135.914392,20.0630096 135.906323,20.0535077 135.906323,20.0535077 L135.909679,20.0505588 C135.908388,20.0484618 135.906323,20.0460372 135.906323,20.0460372 L131.120776,14.7838099 L131.126973,14.7823027 C131.048478,14.6991445 131,14.587153 131,14.4629072 C131,14.2072073 131.204113,14 131.4558,14 L139.328987,14 Z" id="arrow"></path>
                    </g>
                </g>
            </g>
        </g>
    </g>
</svg>