<?xml version="1.0" encoding="UTF-8"?>
<svg width="180px" height="42px" viewBox="0 0 180 42" version="1.1" xmlns="http://www.w3.org/2000/svg" xmlns:xlink="http://www.w3.org/1999/xlink">
    <title>logo</title>
    <g id="Symbols" stroke="none" stroke-width="1" fill="none" fill-rule="evenodd">
        <g id="footer" transform="translate(-309.000000, -97.000000)" fill="#FFFFFF">
            <g id="logo">
                <g transform="translate(309.000000, 97.000000)">
                    <path d="M0.722084471,11.7945004 L12.4726956,22.5444914 C12.4726956,22.5444914 12.4930126,22.5619995 12.5267203,22.5868795 C12.7594422,22.7799296 12.9898554,22.8421296 13.1953341,22.8361399 C13.3998893,22.8421296 13.631226,22.7799296 13.8644097,22.5868795 C13.897194,22.5619995 13.9175109,22.5444914 13.9175109,22.5444914 L24.7732508,12.6132357 C25.1468064,12.2713665 25.7202998,12.2713665 26.0938554,12.6132357 L36.9491335,22.5444914 C36.9491335,22.5444914 36.9694505,22.5619995 37.00362,22.5868795 C37.2363419,22.7799296 37.4667551,22.8421296 37.6717721,22.8361399 C37.876789,22.8421296 38.1081257,22.7799296 38.3408476,22.5868795 C38.3736319,22.5619995 38.3939489,22.5444914 38.3939489,22.5444914 L50.14456,11.7945004 C50.14456,11.7945004 50.866275,11.1347204 50.866275,10.1556474 L50.8676603,1.45410742 C50.8676603,0.949136129 50.4987221,0.490238861 49.9944913,0.448311501 C49.7058976,0.424353009 49.4436236,0.528941041 49.2538444,0.710472691 L49.2515357,0.697571964 L38.4013369,10.6924097 C38.4013369,10.6924097 38.3819434,10.7094571 38.3486974,10.7343371 C38.1150519,10.9273873 37.8851005,10.9895872 37.6796218,10.9831368 C37.4741431,10.9895872 37.2437299,10.9273873 37.0105462,10.7352586 C36.9773002,10.7094571 36.957445,10.6924097 36.957445,10.6924097 L36.9514422,10.6997816 C36.9472865,10.6965564 36.9422072,10.6924097 36.9422072,10.6924097 L26.0929319,0.697571964 L26.0906232,0.706786769 C25.919314,0.545527689 25.690286,0.444919485 25.4363236,0.444919485 C25.4349383,0.444919485 25.4344766,0.444919485 25.4335531,0.444919485 C25.4326296,0.444919485 25.4321678,0.444919485 25.4312443,0.444919485 C25.1768202,0.444919485 24.9473305,0.545527689 24.776483,0.707247509 L24.774636,0.697571964 L13.9244372,10.6924097 C13.9244372,10.6924097 13.9050437,10.7094571 13.8717977,10.7343371 C13.6381523,10.9273873 13.4082008,10.9895872 13.2031839,10.9831368 C12.9977052,10.9895872 12.767292,10.9273873 12.5341083,10.7352586 C12.5004005,10.7094571 12.4810071,10.6924097 12.4810071,10.6924097 L12.4750043,10.6997816 C12.4703868,10.6965564 12.4657693,10.6924097 12.4657693,10.6924097 L1.61603225,0.697571964 L1.61326175,0.710472691 C1.42348255,0.528941041 1.16167036,0.424353009 0.873076683,0.448311501 C0.368845809,0.490238861 -9.23499772e-05,0.948675389 -9.23499772e-05,1.45364668 L-9.23499772e-05,10.1556474 C-9.23499772e-05,11.1347204 0.722084471,11.7945004 0.722084471,11.7945004" id="Fill-1"></path>
                    <path d="M50.3744261,17.9751137 C50.0836371,17.9509566 49.819368,18.0564115 49.6281452,18.2389832 L49.6258189,18.2259755 L38.6930828,28.3041177 C38.6930828,28.3041177 38.6735418,28.3213064 38.6400429,28.3463925 C38.4046201,28.5410427 38.1729195,28.6037582 37.9663429,28.5972544 C37.7593012,28.6037582 37.52667,28.5410427 37.2921777,28.3468571 C37.2582136,28.3213064 37.2386725,28.3041177 37.2386725,28.3041177 L37.2326241,28.3115506 C37.2279715,28.3082987 37.2233189,28.3041177 37.2233189,28.3041177 L26.2910481,18.2259755 L26.2887218,18.2357313 C26.1165747,18.0731356 25.8853393,17.9716932 25.629445,17.9716932 C25.6285144,17.9716932 25.6280492,17.9716932 25.6271186,17.9716932 C25.6261881,17.9716932 25.6252576,17.9716932 25.6247923,17.9716932 C25.3684327,17.9716932 25.1371973,18.0731356 24.964585,18.2361958 L24.9631892,18.2259755 L14.0304531,28.3041177 C14.0304531,28.3041177 14.0109121,28.3213064 13.976948,28.3463925 C13.7419905,28.5410427 13.5098245,28.6037582 13.303248,28.5972544 C13.0966715,28.6037582 12.8640403,28.5410427 12.6290828,28.3468571 C12.5955839,28.3213064 12.5755776,28.3041177 12.5755776,28.3041177 L12.5695292,28.3115506 C12.5653418,28.3082987 12.5602239,28.3041177 12.5602239,28.3041177 L1.62795316,18.2259755 L1.62516159,18.2389832 C1.434404,18.0568761 1.17060022,17.9509566 0.879811212,17.9751137 C0.371744663,18.0173886 0,18.4800893 0,18.9892459 L0,27.7629065 C0,28.7496297 0.727205142,29.4153427 0.727205142,29.4153427 L12.5672029,40.2535033 C12.5672029,40.2535033 12.5876744,40.2711565 12.6216386,40.2971718 C12.8565961,40.4913575 13.088762,40.5536084 13.2953385,40.5475691 C13.5014498,40.5536084 13.7345463,40.4913575 13.9695038,40.2971718 C14.0025374,40.2711565 14.0230089,40.2535033 14.0230089,40.2535033 L24.9617934,30.240864 C25.3377254,29.8961612 25.9155813,29.8961612 26.2919786,30.240864 L37.2302978,40.2535033 C37.2302978,40.2535033 37.2503041,40.2711565 37.2847335,40.2971718 C37.5192258,40.4913575 37.7513917,40.5536084 37.9584335,40.5475691 C38.1645447,40.5536084 38.3976412,40.4913575 38.6325987,40.2971718 C38.6656323,40.2711565 38.6861039,40.2535033 38.6861039,40.2535033 L50.5261016,29.4153427 C50.5261016,29.4153427 51.2533068,28.7496297 51.2533068,27.7629065 L51.2542373,18.9897105 C51.2542373,18.4805538 50.8824926,18.0173886 50.3744261,17.9751137" id="Fill-4"></path>
                    <path d="M105.460124,14.278345 C105.460124,14.0974752 105.342056,13.9768953 105.164954,13.9768953 L103.157802,13.9768953 C102.832886,13.9768953 102.567463,13.7053569 102.567463,13.3739959 L102.567463,10.5099902 C102.567463,10.1786292 102.832886,9.90755815 103.157802,9.90755815 L108.913378,9.90755815 C109.238293,9.90755815 109.504175,10.1786292 109.504175,10.5099902 L109.504175,15.574345 C109.504175,19.1922087 106.522734,22.176327 102.478683,22.176327 C98.4053441,22.176327 95.8673441,19.1314514 95.4541068,15.5140551 C95.1589373,12.9818777 95.1589373,9.60564109 95.4541068,7.07346367 C95.8673441,3.45606735 98.4053441,0.411659125 102.478683,0.411659125 C106.552022,0.411659125 109.504175,3.2756649 109.504175,7.28471214 L109.504175,7.31462342 C109.504175,7.61654048 109.238293,7.91799017 108.913378,7.91799017 L105.961683,7.91799017 C105.637225,7.91799017 105.371802,7.64645177 105.371802,7.31462342 L105.371802,7.28471214 C105.371802,6.04900208 104.33848,4.66186612 102.478683,4.66186612 C100.678378,4.66186612 99.7635814,5.74708502 99.6157678,7.07346367 C99.3205983,9.60564109 99.3205983,12.9818777 99.6157678,15.5140551 C99.7635814,16.8404337 100.678378,17.9256526 102.478683,17.9256526 C104.250158,17.9256526 105.460124,16.9311023 105.460124,15.574345 L105.460124,14.278345 Z" id="Fill-6"></path>
                    <path d="M117.966102,5.03609995 C117.787119,5.03609995 117.667797,5.15464716 117.667797,5.3320085 L117.667797,8.88888445 C117.667797,9.06670527 117.787119,9.18525249 117.966102,9.18525249 L120.650847,9.18525249 C121.784407,9.18525249 122.738983,8.26628183 122.738983,7.11067622 C122.738983,5.98447767 121.784407,5.03609995 120.650847,5.03609995 L117.966102,5.03609995 Z M117.966102,13.334405 C117.787119,13.334405 117.667797,13.4529522 117.667797,13.6307731 L117.667797,21.039974 C117.667797,21.3657491 117.399091,21.6327101 117.071186,21.6327101 L114.088136,21.6327101 C113.760231,21.6327101 113.491525,21.3657491 113.491525,21.039974 L113.491525,1.47968348 C113.491525,1.1534489 113.760231,0.886947405 114.088136,0.886947405 L120.650847,0.886947405 C124.081587,0.886947405 126.915254,3.70267352 126.915254,7.11067622 C126.915254,9.39248037 125.931079,10.9335942 123.812881,12.3561608 C123.395254,12.6525288 123.424854,12.8896232 123.633898,13.334405 L126.825531,20.743606 C127.034576,21.1879283 126.855593,21.6327101 126.258983,21.6327101 L123.186209,21.6327101 C122.708921,21.6327101 122.47074,21.3956157 122.321356,21.039974 L119.278644,13.7194537 C119.218983,13.5714995 119.069599,13.334405 118.741695,13.334405 L117.966102,13.334405 Z" id="Fill-9"></path>
                    <path d="M140.181148,15.7060419 C140.479391,13.2213649 140.479391,9.90846214 140.181148,7.4237851 C140.031796,6.1222876 139.107474,5.05742601 137.288425,5.05742601 C135.468912,5.05742601 134.544129,6.1222876 134.395238,7.4237851 C134.096996,9.90846214 134.096996,13.2213649 134.395238,15.7060419 C134.544129,17.0075394 135.468912,18.072401 137.288425,18.072401 C139.107474,18.072401 140.031796,17.0075394 140.181148,15.7060419 M144.386141,7.4237851 C144.684846,9.90846214 144.684846,13.2213649 144.386141,15.7060419 C143.968601,19.2555806 141.403713,22.2428796 137.288425,22.2428796 C133.172674,22.2428796 130.607786,19.2555806 130.189784,15.7060419 C129.891541,13.2213649 129.891541,9.90846214 130.189784,7.4237851 C130.607786,3.87424646 133.172674,0.886947405 137.288425,0.886947405 C141.403713,0.886947405 143.968601,3.87424646 144.386141,7.4237851" id="Fill-11"></path>
                    <path d="M162.305085,15.6049796 C162.305085,19.2391996 159.344347,22.2428796 155.258528,22.2428796 C151.231924,22.2428796 148.271186,19.2391996 148.271186,15.6049796 L148.271186,1.48768341 C148.271186,1.15751145 148.537882,0.886947405 148.863334,0.886947405 L151.853909,0.886947405 C152.179361,0.886947405 152.446057,1.15751145 152.446057,1.48768341 L152.446057,15.6049796 C152.446057,16.9265988 153.511922,18.0079236 155.258528,18.0079236 C157.064349,18.0079236 158.130674,16.9265988 158.130674,15.6049796 L158.130674,1.48768341 C158.130674,1.15751145 158.396911,0.886947405 158.722362,0.886947405 L161.712937,0.886947405 C162.038389,0.886947405 162.305085,1.15751145 162.305085,1.48768341 L162.305085,15.6049796 Z" id="Fill-13"></path>
                    <path d="M171.050847,5.03609995 C170.871864,5.03609995 170.752542,5.15464716 170.752542,5.33246799 L170.752542,8.88888445 C170.752542,9.06670527 170.871864,9.18525249 171.050847,9.18525249 L173.735593,9.18525249 C174.869153,9.18525249 175.823729,8.26628183 175.823729,7.11067622 C175.823729,5.98447767 174.869153,5.03609995 173.735593,5.03609995 L171.050847,5.03609995 Z M173.735593,0.886947405 C177.16587,0.886947405 180,3.70267352 180,7.11067622 C180,10.5485455 177.16587,13.334405 173.735593,13.334405 L171.050847,13.334405 C170.871864,13.334405 170.752542,13.4529522 170.752542,13.6307731 L170.752542,21.039974 C170.752542,21.3657491 170.484299,21.6327101 170.155932,21.6327101 L167.172881,21.6327101 C166.844515,21.6327101 166.576271,21.3657491 166.576271,21.039974 L166.576271,1.47968348 C166.576271,1.1534489 166.844515,0.886947405 167.172881,0.886947405 L173.735593,0.886947405 Z" id="Fill-15"></path>
                    <path d="M74.1389369,21.6327101 L69.9310828,21.6327101 C69.6588513,21.6327101 69.4161898,21.4847558 69.3556417,21.1879283 L65.2993924,1.47968348 C65.2388444,1.18377493 65.4200191,0.886947405 65.9044034,0.886947405 L68.9322748,0.886947405 C69.2045063,0.886947405 69.4466985,1.00595411 69.5072465,1.33172921 L71.9897162,14.40133 C72.0197555,14.5497437 72.0803035,14.6090173 72.2013996,14.6090173 L72.3830437,14.6090173 C72.5041398,14.6090173 72.5646879,14.5497437 72.5951966,14.40133 L74.6233212,1.33172921 C74.6838693,1.03536117 74.9260614,0.886947405 75.1987623,0.886947405 L77.9234241,0.886947405 C78.1956556,0.886947405 78.4378478,1.03536117 78.4983958,1.33172921 L80.5574985,14.40133 C80.5875379,14.5497437 80.6480859,14.6090173 80.769182,14.6090173 L80.9508261,14.6090173 C81.0719222,14.6090173 81.1324702,14.5497437 81.1625096,14.40133 L83.6449792,1.33172921 C83.7055272,1.00595411 83.9481888,0.886947405 84.2204203,0.886947405 L87.2478223,0.886947405 C87.7322066,0.886947405 87.9133814,1.18377493 87.8533027,1.47968348 L83.7660753,21.1879283 C83.7055272,21.4847558 83.4638045,21.6327101 83.1906342,21.6327101 L78.9827801,21.6327101 C78.7105486,21.6327101 78.4683565,21.4847558 78.4078084,21.1879283 L76.7425026,11.5561968 C76.7124633,11.3191024 76.4097231,11.3191024 76.3792144,11.5561968 L74.714378,21.1879283 C74.6538299,21.4847558 74.4116378,21.6327101 74.1389369,21.6327101" id="Fill-17"></path>
                    <path d="M69.3736683,40.5479644 L68.3472762,40.5479644 C68.2388379,40.5479644 68.1421863,40.4869474 68.1186128,40.3649135 L66.5127829,32.2496593 C66.4892093,32.1281021 66.5613444,32.0055915 66.7546474,32.0055915 L67.4062202,32.0055915 C67.5146585,32.0055915 67.6113101,32.0542144 67.6358266,32.1886423 L68.8178041,38.4490766 C68.8300624,38.4976995 68.8545789,38.522011 68.8908821,38.522011 L68.9149271,38.522011 C68.9512304,38.522011 68.9752754,38.4976995 68.9875337,38.4490766 L70.0252411,32.1886423 C70.0497576,32.0670851 70.1459377,32.0055915 70.254376,32.0055915 L71.0997233,32.0055915 C71.2081616,32.0055915 71.3048131,32.0670851 71.3283867,32.1886423 L72.4632172,38.4490766 C72.4759469,38.4976995 72.4995204,38.522011 72.5358237,38.522011 L72.5603402,38.522011 C72.596172,38.522011 72.620217,38.4976995 72.6324752,38.4490766 L73.9233626,32.1886423 C73.947879,32.0542144 74.0440591,32.0055915 74.1529689,32.0055915 L74.8045417,32.0055915 C74.9978447,32.0055915 75.0704513,32.1281021 75.0464062,32.2496593 L73.3326095,40.3649135 C73.308093,40.4869474 73.211913,40.5479644 73.1030032,40.5479644 L72.077554,40.5479644 C71.9686442,40.5479644 71.8719926,40.4869474 71.8479476,40.3649135 L70.7376336,34.2756127 C70.7253754,34.2145957 70.6527689,34.2145957 70.6405106,34.2756127 L69.6028032,40.3649135 C69.5787582,40.4869474 69.4821066,40.5479644 69.3736683,40.5479644" id="Fill-19"></path>
                    <path d="M86.657397,38.0663421 C86.799133,37.0881402 86.787591,35.4654156 86.657397,34.4872137 C86.5627523,33.7835049 86.0544415,33.1389821 85.1209224,33.1389821 C84.3522235,33.1389821 83.6906345,33.6161993 83.5844479,34.4872137 C83.4662575,35.4654156 83.4662575,37.0881402 83.5844479,38.0663421 C83.6790925,38.7584002 84.1989453,39.4145737 85.1209224,39.4145737 C85.9127054,39.4145737 86.5387449,38.9252397 86.657397,38.0663421 M87.7802053,34.4872137 C87.8983956,35.441648 87.8863919,37.1119079 87.7802053,38.0663421 C87.6384692,39.3786892 86.6809427,40.5479644 85.1209224,40.5479644 C83.7026382,40.5479644 82.6504671,39.6051809 82.4611779,38.0663421 C82.3434492,37.099791 82.3434492,35.441648 82.4611779,34.4872137 C82.6153793,33.1869835 83.5609021,32.0055915 85.1209224,32.0055915 C86.5387449,32.0055915 87.5909161,32.9483749 87.7802053,34.4872137" id="Fill-21"></path>
                    <path d="M97.656883,33.1649135 C97.5857276,33.1649135 97.5378255,33.2140131 97.5378255,33.2874241 L97.5378255,35.8496593 C97.5378255,35.9230703 97.5857276,35.9716932 97.656883,35.9716932 L98.7879289,35.9716932 C99.5376189,35.9716932 100.156625,35.3372122 100.156625,34.5683033 C100.156625,33.7998711 99.5376189,33.1649135 98.7879289,33.1649135 L97.656883,33.1649135 Z M97.656883,37.1310152 C97.5857276,37.1310152 97.5378255,37.1801148 97.5378255,37.2530491 L97.5378255,40.3038966 C97.5378255,40.4383245 97.4303948,40.5479644 97.2992456,40.5479644 L96.6444295,40.5479644 C96.5137453,40.5479644 96.4067797,40.4383245 96.4067797,40.3038966 L96.4067797,32.2496593 C96.4067797,32.115708 96.5137453,32.0055915 96.6444295,32.0055915 L98.7879289,32.0055915 C100.168716,32.0055915 101.288136,33.1525194 101.288136,34.5683033 C101.288136,35.4959516 100.776095,36.3134834 100.050124,36.7529961 C99.8236358,36.8869474 99.7403886,36.9970639 99.8478193,37.2163436 L101.252325,40.1818627 C101.335573,40.3649135 101.263952,40.5479644 101.025837,40.5479644 L100.359394,40.5479644 C100.168716,40.5479644 100.085469,40.4502419 100.014314,40.3038966 L98.6093427,37.2773605 C98.5735325,37.2044262 98.5140037,37.1310152 98.3828545,37.1310152 L97.656883,37.1310152 Z" id="Fill-23"></path>
                    <path d="M110.383035,39.2666084 C110.383035,39.3400194 110.432277,39.3886423 110.505424,39.3886423 L113.247225,39.3886423 C113.381088,39.3886423 113.491525,39.4982822 113.491525,39.6327101 L113.491525,40.3038966 C113.491525,40.4383245 113.381088,40.5479644 113.247225,40.5479644 L109.465117,40.5479644 C109.330298,40.5479644 109.220339,40.4383245 109.220339,40.3038966 L109.220339,32.2496593 C109.220339,32.115708 109.330298,32.0055915 109.465117,32.0055915 L110.137779,32.0055915 C110.272598,32.0055915 110.383035,32.115708 110.383035,32.2496593 L110.383035,39.2666084 Z" id="Fill-25"></path>
                    <path d="M122.623741,33.1649135 C122.55499,33.1649135 122.509454,33.2140131 122.509454,33.2874241 L122.509454,39.2666084 C122.509454,39.3400194 122.55499,39.3886423 122.623741,39.3886423 L123.823752,39.3886423 C124.520634,39.3886423 125.057693,38.7174559 125.137605,37.9852525 C125.252338,37.009458 125.252338,35.5450512 125.137605,34.56878 C125.057693,33.8360999 124.520634,33.1649135 123.823752,33.1649135 L122.623741,33.1649135 Z M123.823752,32.0055915 C125.149212,32.0055915 126.063507,33.1525194 126.22333,34.56878 C126.338063,35.5450512 126.326456,37.009458 126.22333,37.9852525 C126.075114,39.3886423 125.149212,40.5479644 123.823752,40.5479644 L121.651856,40.5479644 C121.526408,40.5479644 121.423729,40.4383245 121.423729,40.3038966 L121.423729,32.250136 C121.423729,32.115708 121.526408,32.0055915 121.651856,32.0055915 L123.823752,32.0055915 Z" id="Fill-27"></path>
                    <path d="M136.492401,40.5479644 L135.466025,40.5479644 C135.357588,40.5479644 135.260938,40.4869474 135.237365,40.3649135 L133.63156,32.2496593 C133.607515,32.1281021 133.680121,32.0055915 133.873421,32.0055915 L134.524983,32.0055915 C134.63342,32.0055915 134.73007,32.0542144 134.754586,32.1886423 L135.936545,38.4490766 C135.948803,38.4976995 135.973319,38.522011 136.009622,38.522011 L136.033667,38.522011 C136.069969,38.522011 136.094014,38.4976995 136.106272,38.4490766 L137.143963,32.1886423 C137.168479,32.0670851 137.264658,32.0055915 137.373566,32.0055915 L138.218429,32.0055915 C138.326865,32.0055915 138.423516,32.0670851 138.447089,32.1886423 L139.581901,38.4490766 C139.593688,38.4976995 139.617733,38.522011 139.654507,38.522011 L139.679023,38.522011 C139.714854,38.522011 139.738899,38.4976995 139.751157,38.4490766 L141.042496,32.1886423 C141.06654,32.0542144 141.162719,32.0055915 141.271627,32.0055915 L141.92319,32.0055915 C142.11649,32.0055915 142.189095,32.1281021 142.16505,32.2496593 L140.45128,40.3649135 C140.426764,40.4869474 140.330586,40.5479644 140.221678,40.5479644 L139.196244,40.5479644 C139.087336,40.5479644 138.990686,40.4869474 138.96617,40.3649135 L137.855873,34.2756127 C137.844087,34.2145957 137.771481,34.2145957 137.759695,34.2756127 L136.721532,40.3649135 C136.697016,40.4869474 136.601309,40.5479644 136.492401,40.5479644" id="Fill-29"></path>
                    <path d="M151.322034,40.3038966 C151.322034,40.4383245 151.206122,40.5479644 151.06512,40.5479644 L150.358608,40.5479644 C150.217105,40.5479644 150.101695,40.4383245 150.101695,40.3038966 L150.101695,32.2496593 C150.101695,32.115708 150.217105,32.0055915 150.358608,32.0055915 L151.06512,32.0055915 C151.206122,32.0055915 151.322034,32.115708 151.322034,32.2496593 L151.322034,40.3038966 Z" id="Fill-31"></path>
                    <path d="M161.064391,33.1649135 C160.996088,33.1649135 160.950107,33.2140131 160.950107,33.2874241 L160.950107,39.2666084 C160.950107,39.3400194 160.996088,39.3886423 161.064391,39.3886423 L162.264375,39.3886423 C162.961241,39.3886423 163.498288,38.7174559 163.578644,37.9852525 C163.692928,37.009458 163.692928,35.5450512 163.578644,34.56878 C163.498288,33.8360999 162.961241,33.1649135 162.264375,33.1649135 L161.064391,33.1649135 Z M162.264375,32.0055915 C163.590251,32.0055915 164.504078,33.1525194 164.664344,34.56878 C164.778628,35.5450512 164.767021,37.009458 164.664344,37.9852525 C164.515685,39.3886423 163.590251,40.5479644 162.264375,40.5479644 L160.092529,40.5479644 C159.967084,40.5479644 159.864407,40.4383245 159.864407,40.3038966 L159.864407,32.250136 C159.864407,32.115708 159.967084,32.0055915 160.092529,32.0055915 L162.264375,32.0055915 Z" id="Fill-33"></path>
                    <path d="M174.399814,39.2666084 C174.399814,39.3400194 174.446896,39.3886423 174.516833,39.3886423 L177.325284,39.3886423 C177.453731,39.3886423 177.559322,39.4982822 177.559322,39.6327101 L177.559322,40.3038966 C177.559322,40.4383245 177.453731,40.5479644 177.325284,40.5479644 L173.522173,40.5479644 C173.39327,40.5479644 173.288136,40.4383245 173.288136,40.3038966 L173.288136,32.2496593 C173.288136,32.115708 173.39327,32.0055915 173.522173,32.0055915 L177.301972,32.0055915 C177.430876,32.0055915 177.535553,32.115708 177.535553,32.2496593 L177.535553,32.9208457 C177.535553,33.0552737 177.430876,33.1649135 177.301972,33.1649135 L174.516833,33.1649135 C174.446896,33.1649135 174.399814,33.2135364 174.399814,33.2869474 L174.399814,35.4840343 C174.399814,35.5564919 174.446896,35.6055915 174.516833,35.6055915 L177.173069,35.6055915 C177.301972,35.6055915 177.407106,35.715708 177.407106,35.8496593 L177.407106,36.5208457 C177.407106,36.6552737 177.301972,36.7649135 177.173069,36.7649135 L174.516833,36.7649135 C174.446896,36.7649135 174.399814,36.8140131 174.399814,36.8869474 L174.399814,39.2666084 Z" id="Fill-35"></path>
                </g>
            </g>
        </g>
    </g>
</svg>