<?xml version="1.0" encoding="UTF-8"?>
<svg width="193px" height="152px" viewBox="0 0 193 152" version="1.1" xmlns="http://www.w3.org/2000/svg" xmlns:xlink="http://www.w3.org/1999/xlink">
    <title>D267ABB5-878B-49F2-9205-CA222F0347EF</title>
    <g id="wgroup_mobile" stroke="none" stroke-width="1" fill="none" fill-rule="evenodd">
        <g id="wgroup-menu-mobile" transform="translate(-35.000000, -27.000000)" fill="#0014C2">
            <g id="logo" transform="translate(99.000000, 0.000000)">
                <g transform="translate(-64.000000, 27.000000)">
                    <path d="M2.74004884,43.2100417 L47.3236568,83.537613 C47.3236568,83.537613 47.4007425,83.6032931 47.5286348,83.6966279 C48.4116173,84.4208373 49.2858401,84.6541744 50.0654575,84.6317049 C50.8415711,84.6541744 51.7192978,84.4208373 52.6040322,83.6966279 C52.7284206,83.6032931 52.8055064,83.537613 52.8055064,83.537613 L93.9938364,46.2814498 C95.4111635,44.9989597 97.5870846,44.9989597 99.0044116,46.2814498 L140.19099,83.537613 C140.19099,83.537613 140.268075,83.6032931 140.39772,83.6966279 C141.280702,84.4208373 142.154925,84.6541744 142.932791,84.6317049 C143.710656,84.6541744 144.588383,84.4208373 145.471365,83.6966279 C145.595754,83.6032931 145.672839,83.537613 145.672839,83.537613 L190.256447,43.2100417 C190.256447,43.2100417 192.994744,40.7349396 192.994744,37.0620402 L193,4.41903862 C193,2.52468673 191.600192,0.803177172 189.687064,0.645890656 C188.592095,0.556012647 187.596988,0.948364725 186.876937,1.62936349 L186.868177,1.58096764 L145.700871,39.0756532 C145.700871,39.0756532 145.627289,39.1396049 145.501148,39.2329398 C144.614662,39.9571491 143.742191,40.1904862 142.962574,40.1662883 C142.182956,40.1904862 141.308733,39.9571491 140.423999,39.2363966 C140.297859,39.1396049 140.222525,39.0756532 140.222525,39.0756532 L140.199749,39.103308 C140.183982,39.0912091 140.16471,39.0756532 140.16471,39.0756532 L99.0009077,1.58096764 L98.992148,1.6155361 C98.3421748,1.01058796 97.4732079,0.633165829 96.5096357,0.633165829 C96.5043799,0.633165829 96.5026279,0.633165829 96.499124,0.633165829 C96.4956201,0.633165829 96.4938682,0.633165829 96.4903643,0.633165829 C95.5250402,0.633165829 94.6543213,1.01058796 94.0061001,1.61726452 L93.9990923,1.58096764 L52.8317856,39.0756532 C52.8317856,39.0756532 52.7582038,39.1396049 52.6320634,39.2329398 C51.745577,39.9571491 50.8731062,40.1904862 50.0952407,40.1662883 C49.3156232,40.1904862 48.4414005,39.9571491 47.556666,39.2363966 C47.4287737,39.1396049 47.3551919,39.0756532 47.3551919,39.0756532 L47.3324165,39.103308 C47.314897,39.0912091 47.2973775,39.0756532 47.2973775,39.0756532 L6.13182284,1.58096764 L6.12131115,1.62936349 C5.40125995,0.948364725 4.40790465,0.556012647 3.31293629,0.645890656 C1.39980756,0.803177172 0,2.52295831 0,4.41731019 L0,37.0620402 C0,40.7349396 2.74004884,43.2100417 2.74004884,43.2100417" id="Fill-1"></path>
                    <path d="M189.687034,67.6458927 C188.592055,67.556011 187.596939,67.9483791 186.876881,68.6276773 L186.868121,68.5792795 L145.700441,106.077232 C145.700441,106.077232 145.626859,106.141186 145.500717,106.234525 C144.614223,106.958764 143.741744,107.192111 142.963871,107.167912 C142.184247,107.192111 141.308264,106.958764 140.425274,106.236253 C140.29738,106.141186 140.223798,106.077232 140.223798,106.077232 L140.201022,106.104888 C140.183502,106.092788 140.165983,106.077232 140.165983,106.077232 L99.0000545,68.5792795 L98.9912946,68.6155779 C98.3430675,68.0106049 97.4723407,67.6331658 96.5087598,67.6331658 C96.5052559,67.6331658 96.5035039,67.6331658 96.5,67.6331658 C96.4964961,67.6331658 96.4929921,67.6331658 96.4912402,67.6331658 C95.5259073,67.6331658 94.6551806,68.0106049 94.0052014,68.6173064 L93.9999455,68.5792795 L52.8322652,106.077232 C52.8322652,106.077232 52.7586827,106.141186 52.6307892,106.234525 C51.7460467,106.958764 50.8718161,107.192111 50.0939435,107.167912 C49.3160709,107.192111 48.4400882,106.958764 47.5553458,106.236253 C47.4292043,106.141186 47.3538698,106.077232 47.3538698,106.077232 L47.3310942,106.104888 C47.3153265,106.092788 47.2960549,106.077232 47.2960549,106.077232 L6.13012654,68.5792795 L6.11961475,68.6276773 C5.40130898,67.9501076 4.40794466,67.556011 3.31296636,67.6458927 C1.39982026,67.8031856 0,69.5247658 0,71.4191954 L0,104.063536 C0,107.734858 2.73832174,110.21179 2.73832174,110.21179 L47.3223344,150.537559 C47.3223344,150.537559 47.3994209,150.603241 47.5273143,150.700037 C48.4120568,151.422548 49.2862875,151.654166 50.0641601,151.631695 C50.8402807,151.654166 51.7180153,151.422548 52.6027578,150.700037 C52.7271473,150.603241 52.8042338,150.537559 52.8042338,150.537559 L93.9946896,113.283324 C95.4102776,112.000781 97.5862185,112.000781 99.0035584,113.283324 L140.192262,150.537559 C140.192262,150.537559 140.267597,150.603241 140.397242,150.700037 C141.280233,151.422548 142.154463,151.654166 142.934088,151.631695 C143.710209,151.654166 144.587943,151.422548 145.472686,150.700037 C145.597075,150.603241 145.674162,150.537559 145.674162,150.537559 L190.258174,110.21179 C190.258174,110.21179 192.996496,107.734858 192.996496,104.063536 L193,71.4209239 C193,69.5264943 191.60018,67.8031856 189.687034,67.6458927" id="Fill-4"></path>
                </g>
            </g>
        </g>
    </g>
</svg>