<?xml version="1.0" encoding="UTF-8"?>
<svg width="200px" height="46px" viewBox="0 0 200 46" version="1.1" xmlns="http://www.w3.org/2000/svg" xmlns:xlink="http://www.w3.org/1999/xlink">
    <title>logo</title>
    <g id="Symbols" stroke="none" stroke-width="1" fill="none" fill-rule="evenodd">
        <g id="Menu" transform="translate(-307.000000, -27.000000)" fill="#0014C2">
            <g id="logo">
                <g>
                    <g transform="translate(307.000000, 27.000000)">
                        <path d="M0.802316079,13.1050004 L13.8585506,25.0494349 C13.8585506,25.0494349 13.8811251,25.0688883 13.9185781,25.0965327 C14.177158,25.3110329 14.4331727,25.380144 14.6614824,25.3734888 C14.8887659,25.380144 15.1458067,25.3110329 15.4048997,25.0965327 C15.4413266,25.0688883 15.4639011,25.0494349 15.4639011,25.0494349 L27.5258342,14.0147064 C27.940896,13.6348517 28.5781109,13.6348517 28.9931727,14.0147064 L41.0545928,25.0494349 C41.0545928,25.0494349 41.0771672,25.0688883 41.1151333,25.0965327 C41.3737132,25.3110329 41.6297279,25.380144 41.8575245,25.3734888 C42.0853211,25.380144 42.3423619,25.3110329 42.6009418,25.0965327 C42.6373688,25.0688883 42.6599432,25.0494349 42.6599432,25.0494349 L55.7161777,13.1050004 C55.7161777,13.1050004 56.5180834,12.3719115 56.5180834,11.2840526 L56.5196225,1.61567491 C56.5196225,1.0545957 56.1096913,0.544709846 55.5494347,0.49812389 C55.2287751,0.471503343 54.9373596,0.587712267 54.7264938,0.789414101 L54.7239285,0.77507996 L42.6681521,11.8804553 C42.6681521,11.8804553 42.6466038,11.8993968 42.6096638,11.9270412 C42.3500577,12.1415414 42.0945561,12.2106524 41.8662464,12.2034854 C41.6379368,12.2106524 41.3819221,12.1415414 41.1228291,11.9280651 C41.0858891,11.8993968 41.0638278,11.8804553 41.0638278,11.8804553 L41.057158,11.8886462 C41.0525405,11.8850627 41.0468969,11.8804553 41.0468969,11.8804553 L28.9921466,0.77507996 L28.9895813,0.785318632 C28.7992377,0.606141876 28.5447623,0.494354983 28.2625818,0.494354983 C28.2610426,0.494354983 28.2605295,0.494354983 28.2595034,0.494354983 C28.2584773,0.494354983 28.2579643,0.494354983 28.2569382,0.494354983 C27.9742446,0.494354983 27.7192561,0.606141876 27.5294256,0.785830566 L27.5273733,0.77507996 L15.4715969,11.8804553 C15.4715969,11.8804553 15.4500486,11.8993968 15.4131086,11.9270412 C15.1535025,12.1415414 14.8980009,12.2106524 14.6702043,12.2034854 C14.4418946,12.2106524 14.18588,12.1415414 13.926787,11.9280651 C13.8893339,11.8993968 13.8677856,11.8804553 13.8677856,11.8804553 L13.8611159,11.8886462 C13.8559853,11.8850627 13.8508548,11.8804553 13.8508548,11.8804553 L1.79559139,0.77507996 L1.79251306,0.789414101 C1.58164727,0.587712267 1.29074485,0.471503343 0.970085204,0.49812389 C0.409828676,0.544709846 -0.000102611086,1.05408377 -0.000102611086,1.61516298 L-0.000102611086,11.2840526 C-0.000102611086,12.3719115 0.802316079,13.1050004 0.802316079,13.1050004" id="Fill-1"></path>
                        <path d="M55.9715845,19.9723486 C55.6484856,19.9455074 55.3548534,20.0626795 55.1423835,20.2655369 L55.1397987,20.2510839 L42.9923142,31.4490196 C42.9923142,31.4490196 42.970602,31.4681182 42.933381,31.4959917 C42.6718001,31.7122697 42.4143549,31.7819536 42.1848255,31.7747271 C41.9547791,31.7819536 41.6963,31.7122697 41.435753,31.4965079 C41.3980151,31.4681182 41.3763028,31.4490196 41.3763028,31.4490196 L41.3695824,31.4572785 C41.3644128,31.4536652 41.3592432,31.4490196 41.3592432,31.4490196 L29.2122757,20.2510839 L29.2096909,20.2619236 C29.0184163,20.0812618 28.7614881,19.968548 28.4771611,19.968548 C28.4761271,19.968548 28.4756102,19.968548 28.4745763,19.968548 C28.4735424,19.968548 28.4725084,19.968548 28.4719915,19.968548 C28.1871475,19.968548 27.9302193,20.0812618 27.7384278,20.2624398 L27.7368769,20.2510839 L15.5893924,31.4490196 C15.5893924,31.4490196 15.5676801,31.4681182 15.5299422,31.4959917 C15.2688783,31.7122697 15.0109161,31.7819536 14.7813867,31.7747271 C14.5518572,31.7819536 14.2933781,31.7122697 14.0323142,31.4965079 C13.9950932,31.4681182 13.972864,31.4490196 13.972864,31.4490196 L13.9661435,31.4572785 C13.9614909,31.4536652 13.9558044,31.4490196 13.9558044,31.4490196 L1.80883685,20.2510839 L1.8057351,20.2655369 C1.59378222,20.0631956 1.30066691,19.9455074 0.977568013,19.9723486 C0.413049626,20.0193206 0,20.5334325 0,21.0991621 L0,30.8476739 C0,31.944033 0.808005714,32.6837141 0.808005714,32.6837141 L13.9635588,44.7261148 C13.9635588,44.7261148 13.9863049,44.7457295 14.0240429,44.7746354 C14.2851068,44.9903972 14.5430689,45.0595649 14.7725984,45.0528546 C15.0016109,45.0595649 15.260607,44.9903972 15.5216709,44.7746354 C15.5583749,44.7457295 15.5811211,44.7261148 15.5811211,44.7261148 L27.735326,33.60096 C28.1530283,33.2179569 28.7950904,33.2179569 29.2133096,33.60096 L41.3669976,44.7261148 C41.3669976,44.7261148 41.3892268,44.7457295 41.4274817,44.7746354 C41.6880286,44.9903972 41.9459908,45.0595649 42.1760372,45.0528546 C42.4050497,45.0595649 42.6640458,44.9903972 42.9251097,44.7746354 C42.9618137,44.7457295 42.9845599,44.7261148 42.9845599,44.7261148 L56.1401129,32.6837141 C56.1401129,32.6837141 56.9481186,31.944033 56.9481186,30.8476739 L56.9491525,21.0996783 C56.9491525,20.5339487 56.5361029,20.0193206 55.9715845,19.9723486" id="Fill-4"></path>
                        <path d="M117.177915,15.8648278 C117.177915,15.6638613 117.046729,15.5298837 116.849949,15.5298837 L114.61978,15.5298837 C114.258763,15.5298837 113.963847,15.2281744 113.963847,14.8599955 L113.963847,11.6777669 C113.963847,11.309588 114.258763,11.0083979 114.61978,11.0083979 L121.014864,11.0083979 C121.375881,11.0083979 121.671305,11.309588 121.671305,11.6777669 L121.671305,17.3048278 C121.671305,21.3246763 118.358593,24.6403633 113.865203,24.6403633 C109.339271,24.6403633 106.519271,21.2571682 106.060119,17.237839 C105.732153,14.4243085 105.732153,10.6729345 106.060119,7.85940408 C106.519271,3.84007483 109.339271,0.457399028 113.865203,0.457399028 C118.391136,0.457399028 121.671305,3.63962766 121.671305,8.0941246 L121.671305,8.12735936 C121.671305,8.46282276 121.375881,8.79776686 121.014864,8.79776686 L117.735203,8.79776686 C117.374695,8.79776686 117.07978,8.49605752 117.07978,8.12735936 L117.07978,8.0941246 C117.07978,6.72111342 115.931644,5.17985125 113.865203,5.17985125 C111.864864,5.17985125 110.848424,6.38565002 110.684186,7.85940408 C110.35622,10.6729345 110.35622,14.4243085 110.684186,17.237839 C110.848424,18.711593 111.864864,19.9173918 113.865203,19.9173918 C115.833508,19.9173918 117.177915,18.8123359 117.177915,17.3048278 L117.177915,15.8648278 Z" id="Fill-6"></path>
                        <path d="M131.073446,5.59566661 C130.874576,5.59566661 130.741996,5.72738574 130.741996,5.92445389 L130.741996,9.87653828 C130.741996,10.074117 130.874576,10.2058361 131.073446,10.2058361 L134.056497,10.2058361 C135.316008,10.2058361 136.376648,9.18475759 136.376648,7.90075135 C136.376648,6.64941964 135.316008,5.59566661 134.056497,5.59566661 L131.073446,5.59566661 Z M131.073446,14.8160056 C130.874576,14.8160056 130.741996,14.9477247 130.741996,15.1453034 L130.741996,23.3777489 C130.741996,23.7397213 130.443434,24.0363446 130.079096,24.0363446 L126.764595,24.0363446 C126.400257,24.0363446 126.101695,23.7397213 126.101695,23.3777489 L126.101695,1.64409276 C126.101695,1.28160989 126.400257,0.985497117 126.764595,0.985497117 L134.056497,0.985497117 C137.86843,0.985497117 141.016949,4.11408168 141.016949,7.90075135 C141.016949,10.4360893 139.923421,12.148438 137.569868,13.7290675 C137.105838,14.0583653 137.138726,14.3218036 137.370998,14.8160056 L140.917257,23.0484511 C141.149529,23.5421426 140.950659,24.0363446 140.287759,24.0363446 L136.873566,24.0363446 C136.343246,24.0363446 136.0786,23.7729063 135.912618,23.3777489 L132.531827,15.2438375 C132.465537,15.0794438 132.299555,14.8160056 131.935217,14.8160056 L131.073446,14.8160056 Z" id="Fill-9"></path>
                        <path d="M155.756832,17.4511577 C156.088212,14.6904054 156.088212,11.0094024 155.756832,8.24865011 C155.590884,6.80254177 154.56386,5.61936223 152.542694,5.61936223 C150.521014,5.61936223 149.493476,6.80254177 149.328043,8.24865011 C148.996662,11.0094024 148.996662,14.6904054 149.328043,17.4511577 C149.493476,18.897266 150.521014,20.0804456 152.542694,20.0804456 C154.56386,20.0804456 155.590884,18.897266 155.756832,17.4511577 M160.429045,8.24865011 C160.76094,11.0094024 160.76094,14.6904054 160.429045,17.4511577 C159.965112,21.3950895 157.115236,24.7143107 152.542694,24.7143107 C147.969638,24.7143107 145.119762,21.3950895 144.655315,17.4511577 C144.323934,14.6904054 144.323934,11.0094024 144.655315,8.24865011 C145.119762,4.30471829 147.969638,0.985497117 152.542694,0.985497117 C157.115236,0.985497117 159.965112,4.30471829 160.429045,8.24865011" id="Fill-11"></path>
                        <path d="M180.338983,17.3388662 C180.338983,21.3768884 177.049274,24.7143107 172.509476,24.7143107 C168.035472,24.7143107 164.745763,21.3768884 164.745763,17.3388662 L164.745763,1.65298157 C164.745763,1.28612384 165.042092,0.985497117 165.403704,0.985497117 L168.726566,0.985497117 C169.088179,0.985497117 169.384507,1.28612384 169.384507,1.65298157 L169.384507,17.3388662 C169.384507,18.807332 170.568803,20.008804 172.509476,20.008804 C174.515943,20.008804 175.700748,18.807332 175.700748,17.3388662 L175.700748,1.65298157 C175.700748,1.28612384 175.996567,0.985497117 176.35818,0.985497117 L179.681041,0.985497117 C180.042654,0.985497117 180.338983,1.28612384 180.338983,1.65298157 L180.338983,17.3388662 Z" id="Fill-13"></path>
                        <path d="M190.056497,5.59566661 C189.857627,5.59566661 189.725047,5.72738574 189.725047,5.92496443 L189.725047,9.87653828 C189.725047,10.074117 189.857627,10.2058361 190.056497,10.2058361 L193.039548,10.2058361 C194.299058,10.2058361 195.359699,9.18475759 195.359699,7.90075135 C195.359699,6.64941964 194.299058,5.59566661 193.039548,5.59566661 L190.056497,5.59566661 Z M193.039548,0.985497117 C196.850967,0.985497117 200,4.11408168 200,7.90075135 C200,11.7206061 196.850967,14.8160056 193.039548,14.8160056 L190.056497,14.8160056 C189.857627,14.8160056 189.725047,14.9477247 189.725047,15.1453034 L189.725047,23.3777489 C189.725047,23.7397213 189.426999,24.0363446 189.062147,24.0363446 L185.747646,24.0363446 C185.382794,24.0363446 185.084746,23.7397213 185.084746,23.3777489 L185.084746,1.64409276 C185.084746,1.28160989 185.382794,0.985497117 185.747646,0.985497117 L193.039548,0.985497117 Z" id="Fill-15"></path>
                        <path d="M82.3765966,24.0363446 L77.7012031,24.0363446 C77.3987237,24.0363446 77.1290997,23.8719509 77.0618241,23.5421426 L72.5548804,1.64409276 C72.4876048,1.31530548 72.6889101,0.985497117 73.2271149,0.985497117 L76.5914165,0.985497117 C76.8938959,0.985497117 77.1629983,1.11772678 77.2302739,1.47969912 L79.9885735,16.0014777 C80.0219505,16.1663819 80.0892261,16.2322415 80.2237773,16.2322415 L80.4256042,16.2322415 C80.5601554,16.2322415 80.627431,16.1663819 80.6613295,16.0014777 L82.9148014,1.47969912 C82.982077,1.1504013 83.2511794,0.985497117 83.5541803,0.985497117 L86.5815823,0.985497117 C86.8840618,0.985497117 87.1531642,1.1504013 87.2204398,1.47969912 L89.5083317,16.0014777 C89.5417087,16.1663819 89.6089843,16.2322415 89.7435355,16.2322415 L89.9453623,16.2322415 C90.0799135,16.2322415 90.1471891,16.1663819 90.1805662,16.0014777 L92.9388658,1.47969912 C93.0061414,1.11772678 93.2757653,0.985497117 93.5782447,0.985497117 L96.9420248,0.985497117 C97.4802296,0.985497117 97.6815348,1.31530548 97.6147808,1.64409276 L93.073417,23.5421426 C93.0061414,23.8719509 92.7375605,24.0363446 92.434038,24.0363446 L87.7586446,24.0363446 C87.4561651,24.0363446 87.1870627,23.8719509 87.1197871,23.5421426 L85.2694474,12.8402187 C85.2360703,12.5767804 84.8996923,12.5767804 84.8657938,12.8402187 L83.0159755,23.5421426 C82.9486999,23.8719509 82.6795975,24.0363446 82.3765966,24.0363446" id="Fill-17"></path>
                        <path d="M77.0818537,45.0532937 L75.941418,45.0532937 C75.820931,45.0532937 75.7135404,44.9854971 75.6873475,44.8499039 L73.9030921,35.8329547 C73.8768993,35.6978912 73.9570493,35.5617683 74.1718305,35.5617683 L74.8958003,35.5617683 C75.0162873,35.5617683 75.1236779,35.6157937 75.1509184,35.7651581 L76.4642268,42.7211963 C76.4778471,42.7752217 76.5050876,42.8022344 76.5454246,42.8022344 L76.5721413,42.8022344 C76.6124782,42.8022344 76.6391949,42.7752217 76.6528152,42.7211963 L77.8058235,35.7651581 C77.833064,35.6300946 77.9399307,35.5617683 78.0604177,35.5617683 L78.9996926,35.5617683 C79.1201796,35.5617683 79.2275702,35.6300946 79.253763,35.7651581 L80.5146857,42.7211963 C80.5288299,42.7752217 80.5550227,42.8022344 80.5953596,42.8022344 L80.6226002,42.8022344 C80.6624133,42.8022344 80.68913,42.7752217 80.7027502,42.7211963 L82.1370695,35.7651581 C82.16431,35.6157937 82.2711768,35.5617683 82.3921876,35.5617683 L83.1161574,35.5617683 C83.3309386,35.5617683 83.4116125,35.6978912 83.3848958,35.8329547 L81.4806772,44.8499039 C81.4534367,44.9854971 81.34657,45.0532937 81.2255591,45.0532937 L80.0861711,45.0532937 C79.9651602,45.0532937 79.8577696,44.9854971 79.8310529,44.8499039 L78.5973707,38.0840141 C78.5837505,38.0162175 78.5030765,38.0162175 78.4894563,38.0840141 L77.336448,44.8499039 C77.3097313,44.9854971 77.2023407,45.0532937 77.0818537,45.0532937" id="Fill-19"></path>
                        <path d="M96.2859966,42.2959357 C96.4434812,41.2090447 96.4306567,39.4060173 96.2859966,38.3191263 C96.1808359,37.5372276 95.6160461,36.8210913 94.5788027,36.8210913 C93.7246927,36.8210913 92.9895939,37.3513325 92.8716087,38.3191263 C92.7402861,39.4060173 92.7402861,41.2090447 92.8716087,42.2959357 C92.9767694,43.0648891 93.5543837,43.7939708 94.5788027,43.7939708 C95.4585616,43.7939708 96.154161,43.2502664 96.2859966,42.2959357 M97.5335614,38.3191263 C97.664884,39.3796088 97.6515466,41.2354532 97.5335614,42.2959357 C97.3760769,43.7540991 96.3121586,45.0532937 94.5788027,45.0532937 C93.0029313,45.0532937 91.8338523,44.0057566 91.623531,42.2959357 C91.4927213,41.22199 91.4927213,39.3796088 91.623531,38.3191263 C91.7948659,36.8744261 92.8454468,35.5617683 94.5788027,35.5617683 C96.154161,35.5617683 97.3232401,36.6093055 97.5335614,38.3191263" id="Fill-21"></path>
                        <path d="M108.507648,36.8499039 C108.428586,36.8499039 108.375362,36.904459 108.375362,36.9860268 L108.375362,39.8329547 C108.375362,39.9145225 108.428586,39.968548 108.507648,39.968548 L109.764365,39.968548 C110.597354,39.968548 111.285138,39.2635692 111.285138,38.4092259 C111.285138,37.5554124 110.597354,36.8499039 109.764365,36.8499039 L108.507648,36.8499039 Z M108.507648,41.2566836 C108.428586,41.2566836 108.375362,41.3112386 108.375362,41.3922768 L108.375362,44.7821073 C108.375362,44.9314717 108.255994,45.0532937 108.110273,45.0532937 L107.382699,45.0532937 C107.237495,45.0532937 107.118644,44.9314717 107.118644,44.7821073 L107.118644,35.8329547 C107.118644,35.68412 107.237495,35.5617683 107.382699,35.5617683 L109.764365,35.5617683 C111.298574,35.5617683 112.542373,36.8361327 112.542373,38.4092259 C112.542373,39.4399463 111.973439,40.3483149 111.166804,40.8366624 C110.915151,40.9854971 110.822654,41.1078488 110.942021,41.3514929 L112.502584,44.6465141 C112.595081,44.8499039 112.515502,45.0532937 112.25093,45.0532937 L111.510438,45.0532937 C111.298574,45.0532937 111.206077,44.9447132 111.127015,44.7821073 L109.565936,41.4192895 C109.526147,41.3382514 109.460004,41.2566836 109.314283,41.2566836 L108.507648,41.2566836 Z" id="Fill-23"></path>
                        <path d="M122.647817,43.6295649 C122.647817,43.7111327 122.70253,43.7651581 122.783804,43.7651581 L125.83025,43.7651581 C125.978987,43.7651581 126.101695,43.8869802 126.101695,44.0363446 L126.101695,44.7821073 C126.101695,44.9314717 125.978987,45.0532937 125.83025,45.0532937 L121.627908,45.0532937 C121.478109,45.0532937 121.355932,44.9314717 121.355932,44.7821073 L121.355932,35.8329547 C121.355932,35.68412 121.478109,35.5617683 121.627908,35.5617683 L122.37531,35.5617683 C122.525109,35.5617683 122.647817,35.68412 122.647817,35.8329547 L122.647817,43.6295649 Z" id="Fill-25"></path>
                        <path d="M136.248601,36.8499039 C136.172211,36.8499039 136.121615,36.904459 136.121615,36.9860268 L136.121615,43.6295649 C136.121615,43.7111327 136.172211,43.7651581 136.248601,43.7651581 L137.581947,43.7651581 C138.35626,43.7651581 138.952992,43.0193954 139.041783,42.2058361 C139.169264,41.12162 139.169264,39.4945014 139.041783,38.4097556 C138.952992,37.5956666 138.35626,36.8499039 137.581947,36.8499039 L136.248601,36.8499039 Z M137.581947,35.5617683 C139.05468,35.5617683 140.070563,36.8361327 140.248144,38.4097556 C140.375625,39.4945014 140.362728,41.12162 140.248144,42.2058361 C140.08346,43.7651581 139.05468,45.0532937 137.581947,45.0532937 L135.168729,45.0532937 C135.029343,45.0532937 134.915254,44.9314717 134.915254,44.7821073 L134.915254,35.8334844 C134.915254,35.68412 135.029343,35.5617683 135.168729,35.5617683 L137.581947,35.5617683 Z" id="Fill-27"></path>
                        <path d="M151.658223,45.0532937 L150.517805,45.0532937 C150.39732,45.0532937 150.289931,44.9854971 150.263739,44.8499039 L148.479511,35.8329547 C148.452795,35.6978912 148.533467,35.5617683 148.748245,35.5617683 L149.472204,35.5617683 C149.592689,35.5617683 149.700078,35.6157937 149.727318,35.7651581 L151.040606,42.7211963 C151.054226,42.7752217 151.081466,42.8022344 151.121802,42.8022344 L151.148519,42.8022344 C151.188855,42.8022344 151.215571,42.7752217 151.229191,42.7211963 L152.382182,35.7651581 C152.409422,35.6300946 152.516287,35.5617683 152.637296,35.5617683 L153.576032,35.5617683 C153.696517,35.5617683 153.803906,35.6300946 153.830099,35.7651581 L155.091002,42.7211963 C155.104098,42.7752217 155.130814,42.8022344 155.171674,42.8022344 L155.198914,42.8022344 C155.238727,42.8022344 155.265443,42.7752217 155.279063,42.7211963 L156.713884,35.7651581 C156.7406,35.6157937 156.847465,35.5617683 156.968474,35.5617683 L157.692433,35.5617683 C157.907211,35.5617683 157.987883,35.6978912 157.961167,35.8329547 L156.056978,44.8499039 C156.029738,44.9854971 155.922873,45.0532937 155.801864,45.0532937 L154.662494,45.0532937 C154.541485,45.0532937 154.434096,44.9854971 154.406856,44.8499039 L153.173193,38.0840141 C153.160096,38.0162175 153.079424,38.0162175 153.066328,38.0840141 L151.912813,44.8499039 C151.885573,44.9854971 151.779232,45.0532937 151.658223,45.0532937" id="Fill-29"></path>
                        <path d="M168.135593,44.7821073 C168.135593,44.9314717 168.006802,45.0532937 167.850134,45.0532937 L167.06512,45.0532937 C166.907895,45.0532937 166.779661,44.9314717 166.779661,44.7821073 L166.779661,35.8329547 C166.779661,35.68412 166.907895,35.5617683 167.06512,35.5617683 L167.850134,35.5617683 C168.006802,35.5617683 168.135593,35.68412 168.135593,35.8329547 L168.135593,44.7821073 Z" id="Fill-31"></path>
                        <path d="M178.960435,36.8499039 C178.884543,36.8499039 178.833452,36.904459 178.833452,36.9860268 L178.833452,43.6295649 C178.833452,43.7111327 178.884543,43.7651581 178.960435,43.7651581 L180.29375,43.7651581 C181.068046,43.7651581 181.664764,43.0193954 181.754049,42.2058361 C181.881031,41.12162 181.881031,39.4945014 181.754049,38.4097556 C181.664764,37.5956666 181.068046,36.8499039 180.29375,36.8499039 L178.960435,36.8499039 Z M180.29375,35.5617683 C181.766945,35.5617683 182.782309,36.8361327 182.960382,38.4097556 C183.087365,39.4945014 183.074468,41.12162 182.960382,42.2058361 C182.795206,43.7651581 181.766945,45.0532937 180.29375,45.0532937 L177.880588,45.0532937 C177.741204,45.0532937 177.627119,44.9314717 177.627119,44.7821073 L177.627119,35.8334844 C177.627119,35.68412 177.741204,35.5617683 177.880588,35.5617683 L180.29375,35.5617683 Z" id="Fill-33"></path>
                        <path d="M193.777571,43.6295649 C193.777571,43.7111327 193.829884,43.7651581 193.907592,43.7651581 L197.028094,43.7651581 C197.170812,43.7651581 197.288136,43.8869802 197.288136,44.0363446 L197.288136,44.7821073 C197.288136,44.9314717 197.170812,45.0532937 197.028094,45.0532937 L192.802415,45.0532937 C192.659189,45.0532937 192.542373,44.9314717 192.542373,44.7821073 L192.542373,35.8329547 C192.542373,35.68412 192.659189,35.5617683 192.802415,35.5617683 L197.002191,35.5617683 C197.145417,35.5617683 197.261725,35.68412 197.261725,35.8329547 L197.261725,36.5787175 C197.261725,36.7280819 197.145417,36.8499039 197.002191,36.8499039 L193.907592,36.8499039 C193.829884,36.8499039 193.777571,36.9039293 193.777571,36.9854971 L193.777571,39.4267047 C193.777571,39.5072132 193.829884,39.5617683 193.907592,39.5617683 L196.858965,39.5617683 C197.002191,39.5617683 197.119007,39.68412 197.119007,39.8329547 L197.119007,40.5787175 C197.119007,40.7280819 197.002191,40.8499039 196.858965,40.8499039 L193.907592,40.8499039 C193.829884,40.8499039 193.777571,40.904459 193.777571,40.9854971 L193.777571,43.6295649 Z" id="Fill-35"></path>
                    </g>
                </g>
            </g>
        </g>
    </g>
</svg>