<?xml version="1.0" encoding="UTF-8"?>
<svg width="34px" height="42px" viewBox="0 0 34 42" version="1.1" xmlns="http://www.w3.org/2000/svg" xmlns:xlink="http://www.w3.org/1999/xlink">
    <title>logo-icon copy</title>
    <g id="wgroup_desktop" stroke="none" stroke-width="1" fill="none" fill-rule="evenodd">
        <g id="wgroup-services" transform="translate(-1025.000000, -732.000000)" fill="#DCDCDC">
            <g id="text" transform="translate(0.000000, 630.000000)">
                <g id="1" transform="translate(1025.000000, 96.000000)">
                    <g id="logo-icon-copy" transform="translate(0.000000, 6.000000)">
                        <path d="M9.82928686,41.4040026 L18.9512246,31.7017518 C18.9512246,31.7017518 18.9655537,31.6849828 18.9870475,31.6570345 C19.1503998,31.46489 19.2034176,31.2748415 19.1984024,31.1050556 C19.2034176,30.9359685 19.1503998,30.7452213 18.9870475,30.5523781 C18.9655537,30.5258272 18.9512246,30.5090582 18.9512246,30.5090582 L10.5242507,21.5453411 C10.2340854,21.2372112 10.2340854,20.7634875 10.5242507,20.4553576 L18.9512246,11.4916405 C18.9512246,11.4916405 18.9655537,11.4748715 18.9870475,11.4469232 C19.1503998,11.2547787 19.2034176,11.0647302 19.1984024,10.8956431 C19.2034176,10.7258572 19.1503998,10.53511 18.9870475,10.3429655 C18.9655537,10.3157159 18.9512246,10.2989469 18.9512246,10.2989469 L9.82928686,0.596696112 C9.82928686,0.596696112 9.2697335,0.000698707391 8.43864273,0.000698707391 L1.05554751,0 C0.62710589,0 0.237352974,0.304636423 0.201530096,0.72036732 C0.181469284,0.958626541 0.270310022,1.17522583 0.424348399,1.332435 L0.413601535,1.33453112 L8.89430974,10.2933573 C8.89430974,10.2933573 8.90863889,10.3087289 8.92941616,10.3366771 C9.09348494,10.5295204 9.1465028,10.7195688 9.14077114,10.888656 C9.1465028,11.0584419 9.09348494,11.2484903 8.93013262,11.4413335 C8.90863889,11.4685831 8.89430974,11.4853521 8.89430974,11.4853521 L8.9000414,11.4902431 C8.89789203,11.4937366 8.89430974,11.4979288 8.89430974,11.4979288 L0.413601535,20.4560563 L0.421482568,20.4574537 C0.284639173,20.5992913 0.199380723,20.788641 0.199380723,20.9982532 C0.199380723,20.9989519 0.199380723,20.9996506 0.199380723,21.0003494 C0.199380723,21.0010481 0.199380723,21.0017468 0.199380723,21.0024455 C0.199380723,21.2120577 0.284639173,21.4014074 0.421482568,21.5425463 L0.413601535,21.5446424 L8.89430974,30.5027699 C8.89430974,30.5027699 8.90863889,30.5188401 8.92941616,30.5467884 C9.09348494,30.7396317 9.1465028,30.9289814 9.14077114,31.0987673 C9.1465028,31.2678545 9.09348494,31.4586016 8.93013262,31.6514448 C8.90863889,31.6786944 8.89430974,31.6947647 8.89430974,31.6947647 L8.9000414,31.6996556 C8.89789203,31.7038479 8.89430974,31.7073414 8.89430974,31.7073414 L0.413601535,40.6654689 L0.424348399,40.6682637 C0.270310022,40.8247742 0.181469284,41.0413735 0.201530096,41.2796327 C0.237352974,41.6953636 0.626389432,42 1.05483106,42 L8.43864273,42 C9.2697335,42 9.82928686,41.4040026 9.82928686,41.4040026" id="Fill-1"></path>
                        <path d="M14.2015894,0.721066028 C14.1815272,0.959325248 14.2703743,1.17592454 14.4237073,1.332435 L14.4129597,1.33453112 L22.8942794,10.2933573 C22.8942794,10.2933573 22.9086096,10.3094276 22.9301049,10.3366771 C23.0941855,10.5295204 23.1464907,10.7195688 23.1414751,10.888656 C23.1464907,11.0584419 23.0941855,11.249189 22.9301049,11.4413335 C22.9086096,11.4692818 22.8942794,11.4853521 22.8942794,11.4853521 L22.900728,11.4902431 C22.897862,11.4937366 22.8942794,11.4979288 22.8942794,11.4979288 L14.4129597,20.4560563 L14.4208413,20.4581524 C14.283988,20.5992913 14.1987234,20.788641 14.1987234,20.9982532 C14.1987234,20.9989519 14.1987234,20.9996506 14.1987234,21.0003494 C14.1987234,21.0010481 14.1987234,21.0017468 14.1987234,21.0024455 C14.1987234,21.2120577 14.283988,21.4021061 14.4215578,21.543245 L14.4129597,21.5446424 L22.8942794,30.5034686 C22.8942794,30.5034686 22.9086096,30.5188401 22.9301049,30.5467884 C23.0941855,30.7396317 23.1464907,30.9296801 23.1414751,31.0987673 C23.1464907,31.2685532 23.0941855,31.4586016 22.9301049,31.6514448 C22.9086096,31.6786944 22.8942794,31.6954634 22.8942794,31.6954634 L22.900728,31.7003543 C22.897862,31.7038479 22.8942794,31.7080401 22.8942794,31.7080401 L14.4129597,40.6661676 L14.4237073,40.6682637 C14.2703743,40.8247742 14.1815272,41.0413735 14.2015894,41.278934 C14.2374149,41.6960623 14.6264794,42 15.0549519,42 L22.439296,42 C23.2697302,42 23.8300405,41.4040026 23.8300405,41.4040026 L32.9512029,31.7017518 C32.9512029,31.7017518 32.9662496,31.6849828 32.9877449,31.6577332 C33.151109,31.46489 33.2034142,31.2748415 33.1983986,31.1057544 C33.2034142,30.9366672 33.151109,30.7452213 32.9877449,30.5530768 C32.9662496,30.5258272 32.9512029,30.5090582 32.9512029,30.5090582 L24.5243379,21.5453411 C24.2341517,21.2372112 24.2341517,20.7634875 24.5243379,20.4553576 L32.9512029,11.4923392 C32.9512029,11.4923392 32.9662496,11.4755702 32.9877449,11.4476219 C33.151109,11.2547787 33.2034142,11.0647302 33.1983986,10.8956431 C33.2034142,10.7265559 33.151109,10.53511 32.9877449,10.3429655 C32.9662496,10.3157159 32.9512029,10.2989469 32.9512029,10.2989469 L23.8300405,0.596696112 C23.8300405,0.596696112 23.2697302,0.000698707391 22.439296,0.000698707391 L15.0556684,0 C14.6271959,0 14.2374149,0.304636423 14.2015894,0.721066028" id="Fill-4"></path>
                    </g>
                </g>
            </g>
        </g>
    </g>
</svg>