<?xml version="1.0" encoding="UTF-8"?>
<svg width="562px" height="449px" viewBox="0 0 562 449" version="1.1" xmlns="http://www.w3.org/2000/svg" xmlns:xlink="http://www.w3.org/1999/xlink">
    <title>W icon</title>
    <g id="wgroup_mobile" stroke="none" stroke-width="1" fill="none" fill-rule="evenodd" opacity="0.2">
        <g id="wgroup-technology-mobile" transform="translate(-177.000000, -951.000000)" fill="#DCDCDC">
            <g id="online-freight-app" transform="translate(0.000000, 749.000000)">
                <g id="BG">
                    <g id="W-icon" transform="translate(458.000000, 426.500000) rotate(-270.000000) translate(-458.000000, -426.500000) translate(234.000000, 146.000000)">
                        <path d="M126.872918,552.553368 L246.418313,423.190023 C246.418313,423.190023 246.6061,422.966437 246.887781,422.593793 C249.028556,420.031866 249.723369,417.497887 249.657643,415.234075 C249.723369,412.979579 249.028556,410.436285 246.887781,407.865041 C246.6061,407.51103 246.418313,407.287443 246.418313,407.287443 L135.980602,287.771215 C132.177909,283.662815 132.177909,277.346501 135.980602,273.238101 L246.418313,153.721873 C246.418313,153.721873 246.6061,153.498287 246.887781,153.125643 C249.028556,150.563715 249.723369,148.029737 249.657643,145.775241 C249.723369,143.511429 249.028556,140.968134 246.887781,138.406207 C246.6061,138.042879 246.418313,137.819293 246.418313,137.819293 L126.872918,8.45594816 C126.872918,8.45594816 119.539824,0.509316099 108.648161,0.509316099 L11.8907551,0.5 C6.27591491,0.5 1.16810039,4.56181897 0.698632141,10.1048976 C0.435729923,13.2816872 1.60001118,16.1696778 3.61872464,18.2657999 L3.47788416,18.2937482 L114.619797,137.744764 C114.619797,137.744764 114.807584,137.949718 115.079876,138.322362 C117.23004,140.893605 117.924853,143.427584 117.849738,145.68208 C117.924853,147.945892 117.23004,150.479871 115.089265,153.051114 C114.807584,153.414442 114.619797,153.638028 114.619797,153.638028 L114.694912,153.703241 C114.666744,153.749821 114.619797,153.805718 114.619797,153.805718 L3.47788416,273.247417 L3.58116718,273.266049 C1.78779847,275.157217 0.670464046,277.68188 0.670464046,280.47671 C0.670464046,280.486026 0.670464046,280.495342 0.670464046,280.504658 C0.670464046,280.513974 0.670464046,280.52329 0.670464046,280.532606 C0.670464046,283.327436 1.78779847,285.852099 3.58116718,287.733951 L3.47788416,287.761899 L114.619797,407.203598 C114.619797,407.203598 114.807584,407.417869 115.079876,407.790513 C117.23004,410.361756 117.924853,412.886418 117.849738,415.15023 C117.924853,417.404726 117.23004,419.948021 115.089265,422.519264 C114.807584,422.882592 114.619797,423.096862 114.619797,423.096862 L114.694912,423.162075 C114.666744,423.217972 114.619797,423.264552 114.619797,423.264552 L3.47788416,542.706252 L3.61872464,542.743516 C1.60001118,544.830322 0.435729923,547.718313 0.698632141,550.895102 C1.16810039,556.438181 6.26652555,560.5 11.8813658,560.5 L108.648161,560.5 C119.539824,560.5 126.872918,552.553368 126.872918,552.553368" id="Fill-1"></path>
                        <path d="M198.69941,10.1142137 C198.436489,13.2910033 199.600854,16.1789939 201.610323,18.2657999 L201.469472,18.2937482 L312.619399,137.744764 C312.619399,137.744764 312.8072,137.959034 313.088902,138.322362 C315.239221,140.893605 315.924694,143.427584 315.858964,145.68208 C315.924694,147.945892 315.239221,150.489187 313.088902,153.051114 C312.8072,153.423758 312.619399,153.638028 312.619399,153.638028 L312.70391,153.703241 C312.66635,153.749821 312.619399,153.805718 312.619399,153.805718 L201.469472,273.247417 L201.572763,273.275366 C199.779265,275.157217 198.66185,277.68188 198.66185,280.47671 C198.66185,280.486026 198.66185,280.495342 198.66185,280.504658 C198.66185,280.513974 198.66185,280.52329 198.66185,280.532606 C198.66185,283.327436 199.779265,285.861415 201.582153,287.743267 L201.469472,287.761899 L312.619399,407.212914 C312.619399,407.212914 312.8072,407.417869 313.088902,407.790513 C315.239221,410.361756 315.924694,412.895735 315.858964,415.15023 C315.924694,417.414042 315.239221,419.948021 313.088902,422.519264 C312.8072,422.882592 312.619399,423.106179 312.619399,423.106179 L312.70391,423.171391 C312.66635,423.217972 312.619399,423.273868 312.619399,423.273868 L201.469472,542.715568 L201.610323,542.743516 C199.600854,544.830322 198.436489,547.718313 198.69941,550.885786 C199.168912,556.447497 204.267705,560.5 209.88295,560.5 L306.656723,560.5 C317.539781,560.5 324.882794,552.553368 324.882794,552.553368 L444.418029,423.190023 C444.418029,423.190023 444.61522,422.966437 444.896921,422.603109 C447.037851,420.031866 447.723324,417.497887 447.657593,415.243391 C447.723324,412.988896 447.037851,410.436285 444.896921,407.874357 C444.61522,407.51103 444.418029,407.287443 444.418029,407.287443 L333.981745,287.771215 C330.178778,283.662815 330.178778,277.346501 333.981745,273.238101 L444.418029,153.731189 C444.418029,153.731189 444.61522,153.507603 444.896921,153.134959 C447.037851,150.563715 447.723324,148.029737 447.657593,145.775241 C447.723324,143.520745 447.037851,140.968134 444.896921,138.406207 C444.61522,138.042879 444.418029,137.819293 444.418029,137.819293 L324.882794,8.45594816 C324.882794,8.45594816 317.539781,0.509316099 306.656723,0.509316099 L209.89234,0.5 C204.277095,0.5 199.168912,4.56181897 198.69941,10.1142137" id="Fill-4"></path>
                    </g>
                </g>
            </g>
        </g>
    </g>
</svg>